# xmcd
#
# Track frame offsets:
#  150
#  27450
#  48317
#  65743
#  75515
#  87910
#  111632
#  125902
#  140337
#  156617
#  171949
#  184099
#  203339
#  230461
#
# Disc length: 3257 seconds
#
# Revision: 0
# Processed by: cddbd v1.5.1PL2 Copyright (c) Steve Scherf et al.
# Submitted via: Collectorz.com_Music_Collector 6.10
#
DISCID=c90cb70e
DTITLE=Various Artist - Blues Music ROM
DYEAR=1900
DGENRE=
TTITLE0=Music ROM Blues Environment
TTITLE1=Albert Collins - Brick
TTITLE2=William Clarke - Lollipop Mama
TTITLE3=Earl Hooker - Rocking With The Kid
TTITLE4=Sonny Boy Williamson - Pontiac Blues
TTITLE5=John Lee Hooker - Roll and Tumble
TTITLE6=A.C. Reed and S.R. Vaughn - These Blues is Killing Me
TTITLE7=Junior Wells - Chitlin Con Carne
TTITLE8=Hound Dog Taylor - Give Me Back My Wig
TTITLE9=James Cotton - No Cuttin Loose
TTITLE10=Johnny Shines - Dynaflow Blues
TTITLE11=Magic Sam - Sweet Home Chicago
TTITLE12=Johnnie Johnson - Slidin' Serenade
TTITLE13=Buddy Guy - This Is The End
EXTD=
EXTT0=
EXTT1=
EXTT2=
EXTT3=
EXTT4=
EXTT5=
EXTT6=
EXTT7=
EXTT8=
EXTT9=
EXTT10=
EXTT11=
EXTT12=
EXTT13=
PLAYORDER=
